<svg xmlns="http://www.w3.org/2000/svg" viewBox="0 0 1136.04 1140.01"><g id="Capa_2" data-name="Capa 2"><g id="Spiral"><g id="forma"><path d="M982.7,973.83a289.82,289.82,0,0,1-62.59,48.78c88.21-90.48,109.55-231.85,43.25-346.68C902.9,571.21,786.87,518.57,674,533.75A112.31,112.31,0,0,1,669.24,618C760.69,685.83,807.1,804.5,777.35,921.71,738,1076.64,580.56,1170.36,425.64,1131a290.11,290.11,0,0,1-73.55-29.82c122.47,31.16,255.57-21,321.86-135.88,60.47-104.73,48-231.54-21.56-321.68a111.68,111.68,0,0,1-75.31,38c-13,113.14-92.6,212.67-209,245.51C214.26,970.55,54.37,881,11,727.21A289.89,289.89,0,0,1,0,648.62C34.25,770.25,146,859.41,278.61,859.41c120.93,0,224.53-74.17,267.81-179.5a111.94,111.94,0,0,1-70.55-46.25c-104.49,45.28-230.46,26.14-317.1-58.23C44.25,463.91,41.83,280.68,153.34,166.17a289.82,289.82,0,0,1,62.59-48.78c-88.21,90.48-109.55,231.85-43.25,346.68C233.14,568.79,349.17,621.43,462,606.25A112.31,112.31,0,0,1,466.8,522C375.35,454.17,328.94,335.5,358.69,218.29,398,63.36,555.48-30.36,710.4,9A290.11,290.11,0,0,1,784,38.78c-122.47-31.16-255.57,21-321.86,135.88-60.47,104.73-48,231.54,21.56,321.68a111.68,111.68,0,0,1,75.31-38c13-113.14,92.6-212.67,209-245.51,153.83-43.41,313.72,46.1,357.13,199.93a289.89,289.89,0,0,1,11,78.59c-34.25-121.63-146-210.79-278.61-210.79-120.93,0-224.53,74.17-267.81,179.5a111.94,111.94,0,0,1,70.55,46.25c104.49-45.28,230.46-26.14,317.1,58.23C1091.79,676.09,1094.21,859.32,982.7,973.83Z"/></g></g></g></svg>