<svg xmlns="http://www.w3.org/2000/svg" viewBox="0 0 254.05 84.55"><defs><style>.cls-1{fill:#fff;}</style></defs><g id="Capa_2" data-name="Capa 2"><g id="imagenes"><g id="flecha"><path class="cls-1" d="M.15,69.38a26.51,26.51,0,0,1,4.34-2.29,32.56,32.56,0,0,1,4.17-1.47,36.48,36.48,0,0,1,8.1-1.32c5.31-.08,10.61-.11,15.9-.31,10.59-.36,21.13-1.19,31.6-2.26s20.84-2.55,31.11-4.2,20.45-3.5,30.51-5.69,20-4.66,29.77-7.53c9.73-3,19.3-6.35,28.85-9.9,2.35-.95,4.71-1.9,7.1-2.82l1.8-.68,1.75-.76,3.53-1.52c4.81-1.88,9.35-4.22,14.17-6.31,2.3-1.2,4.66-2.34,7.05-3.49s4.67-2.47,7.08-3.67c4.89-2.36,9.41-5.26,14.6-7.75l.74.68c-1.23,2.55-2.58,5-4,7.51-.35.62-.72,1.24-1.09,1.85a19.48,19.48,0,0,1-1.15,1.79c-.8,1.17-1.65,2.3-2.47,3.46S231.9,25,231,26.13c-.44.56-.86,1.15-1.31,1.7s-.94,1.07-1.41,1.59c-1.89,2.12-3.81,4.25-5.8,6.32a143.19,143.19,0,0,1-27.13,20.95,181.37,181.37,0,0,1-31.06,14.23,250.92,250.92,0,0,1-32.73,8.85,281.51,281.51,0,0,1-66.7,4.42c-11.08-.47-22.09-1.47-33-2.81-2.74-.36-5.47-.69-8.19-1.1s-5.46-.76-8.17-1.3a32.14,32.14,0,0,1-8-2.87,27.73,27.73,0,0,1-3.86-2.38A21.47,21.47,0,0,1,0,70.37Z"/><path class="cls-1" d="M233.91,70.07a5.38,5.38,0,0,1-.2-1.13,9.51,9.51,0,0,1-.06-1c0-.7,0-1.37,0-2.06.05-1.36.12-2.72.22-4.06.2-2.7.46-5.39.74-8.07.57-5.37,1.22-10.72,1.9-16.06,1.38-10.7,2.87-21.34,4.46-32h0l6.11,7.61L193.7,8.58l0-1L246.85.9l7.2-.9L253,8.51h0q-5.1,15.19-9.93,30.55c-1.6,5.11-3.17,10.23-4.65,15.37-.74,2.56-1.45,5.14-2.11,7.72-.33,1.29-.64,2.58-.92,3.88-.12.64-.26,1.3-.35,1.94a8,8,0,0,0-.12,1,5,5,0,0,0,0,.86Z"/></g></g></g></svg>